<svg xmlns="http://www.w3.org/2000/svg" version="1.1" xmlns:xlink="http://www.w3.org/1999/xlink" xmlns:svgjs="http://svgjs.dev/svgjs" width="1000" height="625" viewBox="0 0 1000 625"><g transform="matrix(1,0,0,1,0,0)"><svg viewBox="0 0 512 320" data-background-color="#dedede" preserveAspectRatio="xMidYMid meet" height="625" width="1000" xmlns="http://www.w3.org/2000/svg" xmlns:xlink="http://www.w3.org/1999/xlink"><g id="tight-bounds" transform="matrix(1,0,0,1,0,0)"><svg viewBox="0 0 512 320" height="320" width="512"><g><svg></svg></g><g><svg viewBox="0 0 512 320" height="320" width="512"><g><path d="M96 160c0-88.366 71.634-160 160-160 88.366 0 160 71.634 160 160 0 88.366-71.634 160-160 160-88.366 0-160-71.634-160-160z" fill="#374151" fill-rule="nonzero" stroke="none" stroke-width="1" stroke-linecap="butt" stroke-linejoin="miter" stroke-miterlimit="10" stroke-dasharray="" stroke-dashoffset="0" font-family="none" font-weight="none" font-size="none" text-anchor="none" style="mix-blend-mode: normal" data-fill-palette-color="tertiary"></path></g><g transform="matrix(1,0,0,1,184.5175143827941,80)"><svg viewBox="0 0 142.9649712344118 160" height="160" width="142.9649712344118"><g><svg viewBox="0 0 142.9649712344118 160" height="160" width="142.9649712344118"><g><svg viewBox="0 0 142.9649712344118 160" height="160" width="142.9649712344118"><g id="textblocktransform"><svg viewBox="0 0 142.9649712344118 160" height="160" width="142.9649712344118" id="textblock"><g><svg viewBox="0 0 142.9649712344118 160" height="160" width="142.9649712344118"><g transform="matrix(1,0,0,1,0,0)"><svg width="142.9649712344118" viewBox="3.4528097221929195 -24.846068727286344 23.163390277807075 25.888000611661276" height="160" data-palette-color="#dedede"><path d="M17.435-1.542c-0.163 0.06-0.29 0.06-0.382 0.002-0.092-0.058-0.17-0.172-0.232-0.341v0l-0.134-0.366c-0.011-0.088-0.043-0.204-0.095-0.349v0c-1.027-2.805-2.426-6.318-4.198-10.539v0l-0.216 0.079-0.583 0.213-0.591 0.217c-1.146 0.419-1.849 0.709-2.11 0.868v0c0.548 1.496 1.307 3.32 2.278 5.47v0c1.103 2.45 1.872 4.27 2.307 5.459v0c0.112 0.307 0.056 0.501-0.169 0.584v0c-0.307 0.112-0.513 0.024-0.618-0.263v0c-0.385-0.995-0.94-2.364-1.664-4.109-0.717-1.747-1.332-3.222-1.843-4.426v0c-2.171-4.729-4.073-9.325-5.707-13.788v0c-0.076-0.207 0.021-0.359 0.29-0.458v0c0.119-0.044 0.23-0.041 0.332 0.006 0.094 0.044 0.155 0.132 0.182 0.264v0l0.832 2.272c0.202 0.551 0.633 1.575 1.295 3.072v0l0.45 1.028c0.457 1.132 0.727 1.811 0.809 2.036v0l0.55 1.503c0.195 0.532 0.345 0.779 0.452 0.739v0l1.14-0.492 0.59-0.279c0.997-0.457 1.567-0.712 1.712-0.765v0l0.004-0.076c-0.33-0.902-1.016-2.61-2.057-5.125v0c-1.053-2.568-1.74-4.29-2.061-5.167v0c-0.089-0.244 0.01-0.419 0.298-0.524v0c0.144-0.053 0.279-0.063 0.404-0.031 0.132 0.03 0.22 0.107 0.266 0.233v0c1.462 3.994 3.138 8.361 5.029 13.1v0c1.904 4.755 3.055 7.678 3.453 8.767v0l0.155 0.422c0.06 0.163 0.078 0.319 0.055 0.47-0.029 0.153-0.103 0.251-0.223 0.294zM16.624 0.98c-0.338-0.104-0.665-0.323-0.981-0.657-0.32-0.342-0.561-0.695-0.721-1.058v0c-0.178-0.466-0.084-1.591 0.283-3.376 0.364-1.778 0.87-3.788 1.515-6.03v0c0.153-0.497 0.255-0.877 0.308-1.14v0c1.566-5.238 2.432-8.358 2.601-9.359v0l0.326-0.381c0.458 0.21 0.521 0.857 0.189 1.941v0l-2.448 8.318c-0.178 0.58-0.465 1.698-0.862 3.354v0c-0.32 1.499-0.596 2.624-0.827 3.376v0c-0.73 2.377-0.314 3.805 1.248 4.285v0c0.956 0.293 2.243-1.707 3.86-6.002v0l0.22-0.612c1.907-5.691 3.282-9.91 4.124-12.657v0l0.06-0.296c0.006-0.089 0.025-0.184 0.056-0.286v0c0.07-0.229 0.281-0.29 0.631-0.183v0c0.249 0.076 0.385 0.188 0.41 0.335v0c-0.018 0.218-0.107 0.588-0.267 1.111v0c-0.487 1.587-0.877 2.632-1.171 3.134v0l-0.027 0.191c-0.084 0.274-0.241 0.683-0.471 1.226v0l-0.451 1.231-0.097 0.316c-0.006 0.089-0.028 0.194-0.065 0.315v0c-0.193 0.492-0.36 0.967-0.5 1.426v0c-0.07 0.139-0.154 0.364-0.25 0.676v0c-0.645 1.964-1.213 3.669-1.706 5.115v0c-0.615 1.799-1.334 3.255-2.156 4.369v0c-0.868 1.191-1.811 1.63-2.831 1.318z" opacity="1" transform="matrix(1,0,0,1,0,0)" fill="#dedede" class="undefined-text-0" data-fill-palette-color="quaternary" id="text-0"></path></svg></g></svg></g></svg></g></svg></g><g></g></svg></g></svg></g></svg></g><defs></defs></svg><rect width="512" height="320" fill="none" stroke="none" visibility="hidden"></rect></g></svg></g></svg>