<svg version="1.1" xmlns="http://www.w3.org/2000/svg" viewBox="0 0 485.0078125 477.6815490722656" width="970.015625" height="955.3630981445312">
  <!-- svg-source:excalidraw -->
  
  <defs>
    <style>
      @font-face {
        font-family: "Virgil";
        src: url("https://excalidraw.com/Virgil.woff2");
      }
      @font-face {
        font-family: "Cascadia";
        src: url("https://excalidraw.com/Cascadia.woff2");
      }
    </style>
  </defs>
  <rect x="0" y="0" width="485.0078125" height="477.6815490722656" fill="#ffffff"></rect><g stroke-linecap="round" transform="translate(10 98.75650024414062) rotate(0 184.4625244140625 184.4625244140625)"><path d="M368.93 184.46 C368.93 188.85, 368.77 193.25, 368.46 197.62 C368.14 202, 367.67 206.37, 367.05 210.71 C366.42 215.06, 365.64 219.39, 364.71 223.67 C363.78 227.96, 362.69 232.22, 361.45 236.43 C360.22 240.64, 358.83 244.82, 357.29 248.93 C355.76 253.04, 354.08 257.1, 352.26 261.09 C350.43 265.08, 348.46 269.02, 346.36 272.87 C344.26 276.72, 342.01 280.5, 339.64 284.19 C337.27 287.88, 334.76 291.5, 332.13 295.01 C329.5 298.52, 326.74 301.94, 323.87 305.26 C321 308.57, 318 311.8, 314.9 314.9 C311.8 318, 308.57 321, 305.26 323.87 C301.94 326.74, 298.52 329.5, 295.01 332.13 C291.5 334.76, 287.88 337.27, 284.19 339.64 C280.5 342.01, 276.72 344.26, 272.87 346.36 C269.02 348.46, 265.08 350.43, 261.09 352.26 C257.1 354.08, 253.04 355.76, 248.93 357.29 C244.82 358.83, 240.64 360.22, 236.43 361.45 C232.22 362.69, 227.96 363.78, 223.67 364.71 C219.39 365.64, 215.06 366.42, 210.71 367.05 C206.37 367.67, 202 368.14, 197.62 368.46 C193.25 368.77, 188.85 368.93, 184.46 368.93 C180.08 368.93, 175.68 368.77, 171.3 368.46 C166.93 368.14, 162.55 367.67, 158.21 367.05 C153.87 366.42, 149.54 365.64, 145.25 364.71 C140.97 363.78, 136.7 362.69, 132.49 361.45 C128.28 360.22, 124.11 358.83, 120 357.29 C115.89 355.76, 111.82 354.08, 107.83 352.26 C103.84 350.43, 99.91 348.46, 96.06 346.36 C92.21 344.26, 88.42 342.01, 84.73 339.64 C81.04 337.27, 77.43 334.76, 73.92 332.13 C70.41 329.5, 66.98 326.74, 63.67 323.87 C60.35 321, 57.13 318, 54.03 314.9 C50.93 311.8, 47.93 308.57, 45.06 305.26 C42.18 301.94, 39.42 298.52, 36.79 295.01 C34.16 291.5, 31.65 287.88, 29.28 284.19 C26.91 280.5, 24.67 276.72, 22.56 272.87 C20.46 269.02, 18.49 265.08, 16.67 261.09 C14.85 257.1, 13.16 253.04, 11.63 248.93 C10.1 244.82, 8.71 240.64, 7.47 236.43 C6.24 232.22, 5.15 227.96, 4.22 223.67 C3.28 219.39, 2.5 215.06, 1.88 210.71 C1.25 206.37, 0.78 202, 0.47 197.62 C0.16 193.25, 0 188.85, 0 184.46 C0 180.08, 0.16 175.68, 0.47 171.3 C0.78 166.93, 1.25 162.55, 1.88 158.21 C2.5 153.87, 3.28 149.54, 4.22 145.25 C5.15 140.97, 6.24 136.7, 7.47 132.49 C8.71 128.28, 10.1 124.11, 11.63 120 C13.16 115.89, 14.85 111.82, 16.67 107.83 C18.49 103.84, 20.46 99.91, 22.56 96.06 C24.67 92.21, 26.91 88.42, 29.28 84.73 C31.65 81.04, 34.16 77.43, 36.79 73.92 C39.42 70.41, 42.18 66.98, 45.06 63.67 C47.93 60.35, 50.93 57.13, 54.03 54.03 C57.13 50.93, 60.35 47.93, 63.67 45.06 C66.98 42.18, 70.41 39.42, 73.92 36.79 C77.43 34.16, 81.04 31.65, 84.73 29.28 C88.42 26.91, 92.21 24.67, 96.06 22.56 C99.91 20.46, 103.84 18.49, 107.83 16.67 C111.82 14.85, 115.89 13.16, 120 11.63 C124.11 10.1, 128.28 8.71, 132.49 7.47 C136.7 6.24, 140.97 5.15, 145.25 4.22 C149.54 3.28, 153.87 2.5, 158.21 1.88 C162.55 1.25, 166.93 0.78, 171.3 0.47 C175.68 0.16, 180.08 0, 184.46 0 C188.85 0, 193.25 0.16, 197.62 0.47 C202 0.78, 206.37 1.25, 210.71 1.88 C215.06 2.5, 219.39 3.28, 223.67 4.22 C227.96 5.15, 232.22 6.24, 236.43 7.47 C240.64 8.71, 244.82 10.1, 248.93 11.63 C253.04 13.16, 257.1 14.85, 261.09 16.67 C265.08 18.49, 269.02 20.46, 272.87 22.56 C276.72 24.67, 280.5 26.91, 284.19 29.28 C287.88 31.65, 291.5 34.16, 295.01 36.79 C298.52 39.42, 301.94 42.18, 305.26 45.06 C308.57 47.93, 311.8 50.93, 314.9 54.03 C318 57.13, 321 60.35, 323.87 63.67 C326.74 66.98, 329.5 70.41, 332.13 73.92 C334.76 77.43, 337.27 81.04, 339.64 84.73 C342.01 88.42, 344.26 92.21, 346.36 96.06 C348.46 99.91, 350.43 103.84, 352.26 107.83 C354.08 111.82, 355.76 115.89, 357.29 120 C358.83 124.11, 360.22 128.28, 361.45 132.49 C362.69 136.7, 363.78 140.97, 364.71 145.25 C365.64 149.54, 366.42 153.87, 367.05 158.21 C367.67 162.55, 368.14 166.93, 368.46 171.3 C368.77 175.68, 368.93 180.08, 368.93 184.46" stroke="#000000" stroke-width="1" fill="none"></path></g><g stroke-linecap="round"><g transform="translate(11.126220703125 288.0070495605469) rotate(0 184.1512451171875 0.000030517578125)"><path d="M0 0 C61.38 0, 306.92 0, 368.3 0 M0 0 C61.38 0, 306.92 0, 368.3 0" stroke="#000000" stroke-width="1" fill="none"></path></g></g><g stroke-linecap="round"><g transform="translate(91.30364990234375 130.91946411132812) rotate(0 100.440185546875 155.17776489257812)"><path d="M0 0 C33.48 51.73, 167.4 258.63, 200.88 310.36 M0 0 C33.48 51.73, 167.4 258.63, 200.88 310.36" stroke="#000000" stroke-width="1" fill="none"></path></g></g><g stroke-linecap="round"><g transform="translate(100.82257080078125 441.8900451660156) rotate(0 95.2601318359375 -156.9979248046875)"><path d="M0 0 C31.75 -52.33, 158.77 -261.66, 190.52 -314 M0 0 C31.75 -52.33, 158.77 -261.66, 190.52 -314" stroke="#000000" stroke-width="1" fill="none"></path></g></g><g transform="translate(303.4281005859375 33.760467529296875) rotate(0 24.5 14.5)"><text x="0" y="21" font-family="Virgil, Segoe UI Emoji" font-size="20px" fill="#c92a2a" text-anchor="start" style="white-space: pre;" direction="ltr">60度</text></g><g transform="translate(187.4903564453125 166.0665283203125) rotate(0 3.5 12.5)"><text x="0" y="18" font-family="Virgil, Segoe UI Emoji" font-size="20px" fill="#000000" text-anchor="start" style="white-space: pre;" direction="ltr">1</text></g><g transform="translate(285.1317138671875 221.73605346679688) rotate(0 8 12.5)"><text x="0" y="18" font-family="Virgil, Segoe UI Emoji" font-size="20px" fill="#000000" text-anchor="start" style="white-space: pre;" direction="ltr">2</text></g><g transform="translate(288.157958984375 326.5570983886719) rotate(0 8 12.5)"><text x="0" y="18" font-family="Virgil, Segoe UI Emoji" font-size="20px" fill="#000000" text-anchor="start" style="white-space: pre;" direction="ltr">3</text></g><g transform="translate(195.221435546875 381.7449035644531) rotate(0 7.5 12.5)"><text x="0" y="18" font-family="Virgil, Segoe UI Emoji" font-size="20px" fill="#000000" text-anchor="start" style="white-space: pre;" direction="ltr">4</text></g><g transform="translate(93.7421875 327.9936828613281) rotate(0 7 12.5)"><text x="0" y="18" font-family="Virgil, Segoe UI Emoji" font-size="20px" fill="#000000" text-anchor="start" style="white-space: pre;" direction="ltr">5</text></g><g transform="translate(92.5047607421875 225.48837280273438) rotate(0 7.5 12.5)"><text x="0" y="18" font-family="Virgil, Segoe UI Emoji" font-size="20px" fill="#000000" text-anchor="start" style="white-space: pre;" direction="ltr">6</text></g><g stroke-linecap="round"><g transform="translate(193.8428955078125 10) rotate(0 -0.064697265625 138.7099151611328)"><path d="M0 0 C-0.02 46.24, -0.11 231.18, -0.13 277.42" stroke="#c92a2a" stroke-width="1.5" fill="none" stroke-dasharray="1.5 7"></path></g></g><g stroke-linecap="round"><g transform="translate(195.46142578125 287.9985656738281) rotate(0 139.773193359375 -78.43226623535156)"><path d="M0 0 C46.59 -26.14, 232.96 -130.72, 279.55 -156.86" stroke="#c92a2a" stroke-width="1.5" fill="none" stroke-dasharray="1.5 7"></path></g></g><g stroke-linecap="round"><g transform="translate(195.619873046875 70.36227416992188) rotate(0 96.32427978515625 55.55998229980469)"><path d="M0 0 C10.09 1.4, 41.29 2.68, 60.52 8.4 C79.76 14.12, 98.73 23.81, 115.42 34.31 C132.11 44.8, 147.81 58.55, 160.68 71.35 C173.55 84.15, 187.32 104.49, 192.65 111.12" stroke="#c92a2a" stroke-width="1.5" fill="none" stroke-dasharray="1.5 7"></path></g></g></svg>